<svg enable-background="new 0 0 720 360" height="360" viewBox="0 0 720 360" width="720" xmlns="http://www.w3.org/2000/svg"><path d="m189.845 95.377c13.286.003 25.852 2.683 37.312 7.527 17.182 7.263 31.856 19.443 42.196 34.754 10.339 15.323 16.355 33.672 16.362 53.589-.005 16.603-4.187 32.098-11.561 45.685-7.374 13.578-17.964 25.206-30.72 33.823l20.033 29.652c17.503-11.828 31.992-27.732 42.132-46.393 10.139-18.652 15.906-40.102 15.901-62.767.003-18.128-3.684-35.491-10.353-51.251-10.007-23.65-26.677-43.716-47.68-57.908-20.991-14.193-46.418-22.502-73.623-22.495z" fill="#0079c1"/><path d="m112.294 247.622c-11.533-15.854-18.311-35.239-18.319-56.376.006-18.173 5.015-35.027 13.741-49.488 8.726-14.45 21.193-26.438 36.011-34.585l-17.244-31.356c-20.363 11.201-37.408 27.595-49.398 47.437-11.99 19.832-18.902 43.178-18.896 67.992-.008 28.88 9.356 55.744 25.179 77.446z" fill="#0079c1"/><path d="m250.119 191.247c0 33.289-26.986 60.274-60.274 60.274-33.289 0-60.274-26.986-60.274-60.274s26.986-60.274 60.274-60.274c33.289-.001 60.274 26.985 60.274 60.274zm-60.274-24.489c-13.525 0-24.489 10.964-24.489 24.489s10.964 24.489 24.489 24.489 24.489-10.964 24.489-24.489-10.964-24.489-24.489-24.489z" fill="#e51f26"/><g fill="#424143"><path d="m411.136 100.222h-17.68v46.787h-16.893v-46.787h-17.764v-14.728h52.337z"/><path d="m428.721 147.875c-4.102 0-7.695-.646-10.786-1.946-3.091-1.299-5.689-3.036-7.8-5.201s-3.698-4.679-4.763-7.535c-1.07-2.862-1.604-5.849-1.604-8.97 0-3.12.533-6.107 1.604-8.969 1.064-2.857 2.652-5.371 4.763-7.536s4.709-3.902 7.8-5.201 6.685-1.946 10.786-1.946c4.041 0 7.625.647 10.746 1.946 3.12 1.299 5.729 3.036 7.839 5.201s3.698 4.679 4.769 7.536c1.065 2.861 1.603 5.849 1.603 8.969 0 3.121-.537 6.107-1.603 8.97-1.07 2.856-2.658 5.37-4.769 7.535s-4.719 3.902-7.839 5.201c-3.121 1.3-6.705 1.946-10.746 1.946zm-8.059-23.652c0 3.062.752 5.46 2.255 7.192s3.435 2.599 5.804 2.599 4.305-.866 5.809-2.599c1.498-1.732 2.249-4.131 2.249-7.192s-.751-5.46-2.249-7.192c-1.504-1.731-3.439-2.598-5.809-2.598s-4.301.866-5.804 2.598-2.255 4.131-2.255 7.192z"/><path d="m487.812 115.473c-3.176 0-6.062.344-8.666 1.04-2.598.692-4.534 1.847-5.803 3.465v27.031h-16.461v-45.572h15.077v8.661c1.612-3.062 3.623-5.416 6.018-7.059 2.398-1.647 4.982-2.469 7.755-2.469 1.1 0 1.791.03 2.08.085z"/><path d="m512.763 147.875c-4.101 0-7.694-.646-10.785-1.946-3.092-1.299-5.689-3.036-7.8-5.201s-3.698-4.679-4.764-7.535c-1.07-2.862-1.603-5.849-1.603-8.97 0-3.12.532-6.107 1.603-8.969 1.065-2.857 2.653-5.371 4.764-7.536s4.708-3.902 7.8-5.201c3.091-1.299 6.685-1.946 10.785-1.946 4.042 0 7.626.647 10.746 1.946 3.121 1.299 5.729 3.036 7.84 5.201s3.698 4.679 4.768 7.536c1.065 2.861 1.604 5.849 1.604 8.969 0 3.121-.538 6.107-1.604 8.97-1.069 2.856-2.657 5.37-4.768 7.535s-4.719 3.902-7.84 5.201c-3.12 1.3-6.704 1.946-10.746 1.946zm-8.058-23.652c0 3.062.751 5.46 2.254 7.192 1.504 1.732 3.435 2.599 5.804 2.599s4.306-.866 5.809-2.599c1.498-1.732 2.25-4.131 2.25-7.192s-.752-5.46-2.25-7.192c-1.503-1.731-3.439-2.598-5.809-2.598s-4.3.866-5.804 2.598c-1.503 1.732-2.254 4.131-2.254 7.192z"/><path d="m586.761 147.009h-16.46v-25.647c0-2.25-.508-3.883-1.518-4.894-1.011-1.01-2.181-1.518-3.509-1.518-1.384 0-2.857.607-4.42 1.821-1.559 1.215-2.713 2.772-3.465 4.679v25.559h-16.46v-45.572h14.812v6.754c1.618-2.479 3.888-4.375 6.804-5.674 2.917-1.299 6.366-1.946 10.354-1.946 3.121 0 5.59.562 7.411 1.688 1.816 1.125 3.205 2.528 4.156 4.201.955 1.677 1.572 3.469 1.861 5.375s.433 3.639.433 5.196z"/><path d="m624.107 144.496c-2.31.985-4.778 1.807-7.406 2.474-2.628.661-5.217.995-7.755.995-1.852 0-3.613-.234-5.286-.697-1.678-.457-3.136-1.209-4.375-2.249-1.244-1.041-2.225-2.399-2.946-4.072-.722-1.677-1.085-3.758-1.085-6.241v-20.88h-5.63v-12.389h5.63v-14.3h16.465v14.3h8.924v12.389h-8.924v15.076c0 1.503.313 2.559.95 3.161.638.607 1.504.91 2.604.91.807 0 1.732-.129 2.772-.388 1.035-.259 2.075-.622 3.115-1.085z"/><path d="m648.102 147.875c-4.101 0-7.694-.646-10.785-1.946-3.091-1.299-5.689-3.036-7.8-5.201s-3.698-4.679-4.764-7.535c-1.069-2.862-1.603-5.849-1.603-8.97 0-3.12.533-6.107 1.603-8.969 1.065-2.857 2.653-5.371 4.764-7.536s4.709-3.902 7.8-5.201 6.685-1.946 10.785-1.946c4.042 0 7.626.647 10.746 1.946 3.121 1.299 5.729 3.036 7.84 5.201s3.698 4.679 4.769 7.536c1.064 2.861 1.603 5.849 1.603 8.969 0 3.121-.538 6.107-1.603 8.97-1.07 2.856-2.658 5.37-4.769 7.535s-4.719 3.902-7.84 5.201c-3.12 1.3-6.704 1.946-10.746 1.946zm-8.058-23.652c0 3.062.751 5.46 2.255 7.192 1.503 1.732 3.434 2.599 5.803 2.599 2.37 0 4.306-.866 5.809-2.599 1.499-1.732 2.25-4.131 2.25-7.192s-.751-5.46-2.25-7.192c-1.503-1.731-3.438-2.598-5.809-2.598-2.369 0-4.3.866-5.803 2.598-1.504 1.732-2.255 4.131-2.255 7.192z"/><path d="m438.924 223.181c-4.345 0-7.665-1.319-9.944-3.957-2.285-2.633-3.425-6.48-3.425-11.537v-28.217h15.489v24.713c0 1.901.424 3.369 1.265 4.399.846 1.035 2.001 1.553 3.469 1.553 1.195 0 2.42-.273 3.669-.816 1.249-.542 2.498-1.741 3.753-3.588v-26.261h15.494v25.772c0 1.469.214 2.483.652 3.057.433.572 1.194.91 2.279 1.02v13.046c-2.663.543-4.838.816-6.521.816-5.275 0-8.316-1.986-9.133-5.953l-.329-1.548c-2.011 2.663-4.404 4.579-7.177 5.749s-5.952 1.752-9.541 1.752z"/><path d="m507.92 192.68c-2.991 0-5.709.328-8.158.98-2.443.652-4.266 1.742-5.465 3.26v25.444h-15.494v-42.895h14.19v8.158c1.522-2.882 3.414-5.098 5.669-6.65 2.255-1.548 4.688-2.324 7.297-2.324 1.035 0 1.688.03 1.961.085z"/><path d="m513.216 162.835h15.494v42.487c0 3.26 1.329 4.893 3.997 4.893.652 0 1.359-.109 2.12-.328.757-.215 1.469-.513 2.121-.896l1.956 11.418c-1.852.871-3.928 1.548-6.242 2.041-2.31.487-4.494.731-6.56.731-4.137 0-7.317-1.061-9.542-3.181-2.229-2.12-3.345-5.191-3.345-9.213z"/><path d="m543.304 175.881v-13.046h15.495v13.046zm0 46.483v-42.895h15.495v42.895z"/><path d="m610.588 222.364h-15.495v-24.135c0-2.12-.478-3.658-1.428-4.609-.951-.95-2.056-1.429-3.306-1.429-1.304 0-2.688.573-4.155 1.713-1.469 1.145-2.559 2.612-3.266 4.404v24.056h-15.494v-42.895h13.946v6.361c1.523-2.335 3.658-4.116 6.4-5.341 2.748-1.225 5.993-1.837 9.746-1.837 2.937 0 5.261.532 6.974 1.593 1.712 1.061 3.016 2.379 3.912 3.957.9 1.573 1.483 3.26 1.757 5.052.269 1.797.408 3.425.408 4.893v28.217z"/><path d="m635.375 222.364c-2.772 0-5.315-.558-7.625-1.672-2.31-1.11-4.281-2.634-5.913-4.564-1.628-1.932-2.893-4.201-3.793-6.81-.896-2.607-1.344-5.435-1.344-8.48 0-3.206.487-6.173 1.468-8.89.98-2.718 2.35-5.058 4.116-7.014 1.768-1.956 3.878-3.494 6.321-4.608 2.449-1.11 5.137-1.673 8.073-1.673 3.102 0 5.818.612 8.158 1.837 2.334 1.225 4.186 3.006 5.545 5.341v-6.361h13.453v38.982c0 3.37-.627 6.416-1.876 9.134s-3.017 5.027-5.301 6.928c-2.285 1.907-5.027 3.385-8.237 4.445-3.206 1.061-6.765 1.593-10.682 1.593-4.564 0-8.536-.707-11.906-2.12-3.369-1.414-6.36-3.455-8.969-6.117l8.152-8.481c1.578 1.468 3.47 2.702 5.67 3.713 2.2 1.006 4.554 1.508 7.053 1.508 1.413 0 2.758-.193 4.036-.572 1.279-.378 2.404-.99 3.385-1.837.98-.841 1.752-1.94 2.324-3.3.573-1.358.856-2.991.856-4.893v-2.772c-1.249 2.285-3.031 3.967-5.341 5.058-2.307 1.083-4.85 1.625-7.623 1.625zm5.545-12.229c1.577 0 2.946-.368 4.121-1.104 1.165-.731 2.265-1.832 3.3-3.3v-7.665c-.762-1.956-1.892-3.51-3.385-4.649s-3.056-1.712-4.688-1.712c-1.09 0-2.105.259-3.056.776-.956.513-1.782 1.194-2.489 2.036-.707.846-1.249 1.852-1.633 3.016-.378 1.17-.567 2.409-.567 3.713 0 2.663.787 4.809 2.364 6.441 1.573 1.631 3.589 2.448 6.033 2.448z"/><path d="m376.417 235.607h10.249l14.162 41.822h-11.401l-2.474-8.187h-10.885l-2.418 8.187h-11.452zm8.748 25.98-3.626-12.961-3.801 12.961z"/><path d="m414.663 277.944c-2.356 0-4.663-.385-6.92-1.155-2.252-.766-4.168-1.887-5.739-3.353l3.332-5.845c1.672 1.126 3.288 2.002 4.844 2.612 1.552.615 2.978.926 4.278.926 1.366 0 2.047-.431 2.047-1.281 0-.48-.266-.891-.791-1.23-.53-.341-1.566-.736-3.103-1.182-1.911-.545-3.507-1.08-4.788-1.61s-2.327-1.102-3.127-1.717c-.806-.615-1.376-1.301-1.717-2.052-.34-.75-.516-1.636-.516-2.661 0-1.366.275-2.632.821-3.793.545-1.161 1.306-2.167 2.281-3.022s2.137-1.511 3.482-1.972c1.352-.465 2.827-.695 4.434-.695 1.981 0 3.867.261 5.664.771 1.791.511 3.593 1.557 5.404 3.128l-3.688 5.839c-1.676-1.091-3.077-1.871-4.203-2.332-1.125-.46-2.187-.69-3.177-.69-.58 0-1.061.11-1.437.33-.375.226-.56.576-.56 1.051 0 .516.27.931.82 1.256.545.326 1.621.691 3.228 1.102 1.946.515 3.582 1.051 4.918 1.616 1.331.565 2.396 1.176 3.202 1.846.801.666 1.371 1.416 1.717 2.252.34.836.51 1.801.51 2.897 0 1.4-.255 2.646-.766 3.737-.515 1.096-1.256 2.031-2.231 2.817-.971.785-2.151 1.386-3.532 1.796-1.384.409-2.945.614-4.687.614z"/><path d="m441.047 277.944c-2.356 0-4.663-.385-6.92-1.155-2.251-.766-4.168-1.887-5.739-3.353l3.333-5.845c1.671 1.126 3.287 2.002 4.844 2.612 1.551.615 2.977.926 4.277.926 1.366 0 2.047-.431 2.047-1.281 0-.48-.266-.891-.791-1.23-.53-.341-1.565-.736-3.102-1.182-1.912-.545-3.508-1.08-4.789-1.61-1.28-.53-2.326-1.102-3.127-1.717-.806-.615-1.376-1.301-1.716-2.052-.341-.75-.516-1.636-.516-2.661 0-1.366.275-2.632.82-3.793.546-1.161 1.306-2.167 2.281-3.022.977-.855 2.137-1.511 3.483-1.972 1.351-.465 2.826-.695 4.433-.695 1.981 0 3.868.261 5.664.771 1.792.511 3.593 1.557 5.404 3.128l-3.688 5.839c-1.677-1.091-3.077-1.871-4.203-2.332-1.126-.46-2.187-.69-3.178-.69-.58 0-1.061.11-1.436.33-.376.226-.561.576-.561 1.051 0 .516.271.931.82 1.256.546.326 1.621.691 3.228 1.102 1.946.515 3.582 1.051 4.919 1.616 1.33.565 2.396 1.176 3.202 1.846.8.666 1.371 1.416 1.716 2.252.341.836.511 1.801.511 2.897 0 1.4-.256 2.646-.766 3.737-.516 1.096-1.256 2.031-2.231 2.817-.971.785-2.152 1.386-3.533 1.796-1.383.409-2.945.614-4.686.614z"/><path d="m469.588 277.944c-2.427 0-4.554-.385-6.38-1.155-1.826-.766-3.367-1.792-4.613-3.072-1.246-1.281-2.187-2.768-2.816-4.458-.631-1.691-.946-3.458-.946-5.305 0-1.846.315-3.612.946-5.304.63-1.691 1.57-3.177 2.816-4.458s2.787-2.302 4.613-3.072 3.953-1.15 6.38-1.15c2.387 0 4.508.38 6.35 1.15 1.847.771 3.393 1.791 4.639 3.072 1.245 1.281 2.187 2.767 2.816 4.458.636 1.691.951 3.458.951 5.304 0 1.847-.315 3.613-.951 5.305-.63 1.69-1.571 3.177-2.816 4.458-1.246 1.28-2.792 2.307-4.639 3.072-1.842.771-3.963 1.155-6.35 1.155zm-4.768-13.99c0 1.812.445 3.228 1.336 4.254.886 1.025 2.031 1.536 3.433 1.536s2.542-.511 3.433-1.536c.886-1.026 1.331-2.442 1.331-4.254 0-1.811-.445-3.227-1.331-4.253-.891-1.025-2.031-1.536-3.433-1.536s-2.547.511-3.433 1.536c-.891 1.027-1.336 2.443-1.336 4.253z"/><path d="m487.011 263.954c0-1.846.32-3.612.971-5.304s1.596-3.177 2.842-4.458c1.251-1.281 2.797-2.302 4.639-3.072 1.846-.771 3.963-1.15 6.354-1.15 3.277 0 6.02.68 8.221 2.046 2.207 1.366 3.853 3.128 4.948 5.279l-9.481 2.867c-.921-1.331-2.167-1.997-3.737-1.997-1.336 0-2.462.506-3.383 1.512-.921 1.011-1.386 2.432-1.386 4.277 0 1.847.465 3.272 1.386 4.278.921 1.011 2.047 1.512 3.383 1.512 1.57 0 2.816-.666 3.737-1.997l9.481 2.867c-1.096 2.151-2.741 3.913-4.948 5.279-2.201 1.365-4.943 2.051-8.221 2.051-2.392 0-4.509-.385-6.354-1.155-1.842-.766-3.388-1.792-4.639-3.072-1.246-1.281-2.191-2.768-2.842-4.458-.651-1.692-.971-3.458-.971-5.305z"/><path d="m518.774 248.223v-8.195h9.732v8.195zm0 29.207v-26.95h9.732v26.95z"/><path d="m542.085 277.944c-1.336 0-2.581-.225-3.742-.665-1.161-.445-2.162-1.051-2.997-1.821-.836-.771-1.496-1.682-1.972-2.742-.48-1.056-.716-2.201-.716-3.433 0-1.366.285-2.611.871-3.737.58-1.131 1.381-2.102 2.406-2.923 1.026-.82 2.247-1.45 3.663-1.896s2.982-.666 4.688-.666c2.187 0 3.998.341 5.429 1.025v-.82c0-1.266-.365-2.201-1.101-2.816-.735-.616-1.922-.926-3.558-.926-1.541 0-2.957.25-4.253.745-1.301.495-2.667 1.221-4.099 2.177l-2.821-6.045c3.553-2.291 7.601-3.432 12.144-3.432 4.303 0 7.615.955 9.942 2.866 2.321 1.912 3.482 4.784 3.482 8.606v5.229c0 .92.135 1.561.41 1.921s.751.57 1.437.641v8.196c-.786.17-1.531.3-2.232.385-.7.085-1.32.13-1.866.13-1.746 0-3.067-.32-3.973-.95-.905-.631-1.496-1.562-1.767-2.792l-.205-.971c-1.195 1.536-2.582 2.707-4.152 3.507-1.569.802-3.241 1.207-5.018 1.207zm2.918-6.969c.58 0 1.181-.095 1.796-.28.615-.19 1.161-.436 1.636-.745.381-.271.686-.571.926-.896.235-.325.355-.655.355-1v-1.997c-.58-.205-1.211-.375-1.892-.51-.686-.141-1.301-.205-1.846-.205-1.196 0-2.187.29-2.973.87-.785.581-1.176 1.316-1.176 2.202 0 .75.295 1.365.896 1.846.597.474 1.357.715 2.278.715z"/><path d="m584.151 275.943c-1.365.58-2.826 1.07-4.378 1.461-1.556.396-3.087.591-4.588.591-1.091 0-2.137-.136-3.128-.411-.99-.274-1.851-.715-2.586-1.331-.736-.615-1.316-1.416-1.742-2.411-.425-.986-.64-2.217-.64-3.688v-12.35h-3.328v-7.325h3.328v-8.456h9.736v8.456h5.274v7.325h-5.274v8.917c0 .891.186 1.511.561 1.871.376.36.891.535 1.541.535.476 0 1.021-.075 1.637-.229.615-.15 1.23-.365 1.846-.641z"/><path d="m587.639 248.223v-8.195h9.731v8.195zm0 29.207v-26.95h9.731v26.95z"/><path d="m616.28 277.944c-2.427 0-4.554-.385-6.38-1.155-1.826-.766-3.367-1.792-4.613-3.072-1.246-1.281-2.187-2.768-2.817-4.458-.63-1.691-.945-3.458-.945-5.305 0-1.846.315-3.612.945-5.304.631-1.691 1.571-3.177 2.817-4.458s2.787-2.302 4.613-3.072 3.953-1.15 6.38-1.15c2.387 0 4.508.38 6.35 1.15 1.846.771 3.393 1.791 4.639 3.072 1.245 1.281 2.187 2.767 2.816 4.458.636 1.691.951 3.458.951 5.304 0 1.847-.315 3.613-.951 5.305-.63 1.69-1.571 3.177-2.816 4.458-1.246 1.28-2.793 2.307-4.639 3.072-1.843.771-3.964 1.155-6.35 1.155zm-4.769-13.99c0 1.812.445 3.228 1.336 4.254.886 1.025 2.031 1.536 3.433 1.536 1.4 0 2.542-.511 3.433-1.536.886-1.026 1.331-2.442 1.331-4.254 0-1.811-.445-3.227-1.331-4.253-.891-1.025-2.032-1.536-3.433-1.536s-2.547.511-3.433 1.536c-.891 1.027-1.336 2.443-1.336 4.253z"/><path d="m662.283 277.43h-9.731v-15.166c0-1.331-.301-2.297-.896-2.893-.6-.601-1.29-.9-2.076-.9-.82 0-1.691.36-2.611 1.075-.926.721-1.606 1.642-2.052 2.768v15.116h-9.732v-26.95h8.762v3.998c.955-1.471 2.297-2.587 4.018-3.357 1.727-.771 3.768-1.15 6.125-1.15 1.846 0 3.307.33 4.383.995 1.076.666 1.892 1.496 2.457 2.487.565.99.931 2.051 1.101 3.177s.255 2.151.255 3.072v17.728z"/><path d="m396.71 161.519c3.209.441 6.374 1.06 9.378 2.331 1.474.623 2.924 1.296 4.274 2.159 1.127.72 1.363 1.5.688 2.63-2.07 3.464-4.171 6.909-6.299 10.338-.688 1.108-1.475 1.211-2.781.486-3.811-2.116-7.837-2.653-12.044-1.555-9.12 2.379-14.167 12.286-10.783 21.096.857 2.231.718 2.613-1.418 3.603-3.153 1.461-6.313 2.909-9.477 4.346-2.077.944-2.742.683-3.583-1.398-1.341-3.318-2.249-6.738-2.361-10.339-.008-.274-.101-.545-.154-.817 0-.72 0-1.44 0-2.16.293-.77.108-1.585.222-2.373 1.79-12.343 8.299-21.103 19.798-26.072 2.883-1.246 5.943-1.796 9.02-2.275z"/><path d="m391.43 225.119c-3.209-.447-6.375-1.061-9.386-2.321-2.371-.992-4.613-2.211-6.693-3.72-1.128-.818-1.3-1.639-.481-2.761 2.358-3.228 4.744-6.437 7.15-9.629.809-1.072 1.631-1.118 2.921-.261 2.768 1.841 5.781 2.866 9.133 2.812 5.805-.094 10.27-2.625 13.47-7.427 1.12-1.68 1.702-1.854 3.423-.883 3.029 1.71 6.059 3.415 9.091 5.118.663.373 1.321.749 1.851 1.309v1.44c-.213.337-.429.672-.637 1.011-3.856 6.266-9.235 10.692-16.093 13.336-2.732 1.054-5.595 1.536-8.47 1.973-1.759.003-3.519.003-5.279.003z"/></g></svg>