<?xml version="1.0" standalone="no"?>
<!DOCTYPE svg PUBLIC "-//W3C//DTD SVG 20010904//EN"
 "http://www.w3.org/TR/2001/REC-SVG-20010904/DTD/svg10.dtd">
<svg version="1.0" xmlns="http://www.w3.org/2000/svg"
 width="1311.000000pt" height="1311.000000pt" viewBox="0 0 1311.000000 1311.000000"
 preserveAspectRatio="xMidYMid meet">
<metadata>
Created by potrace 1.11, written by Peter Selinger 2001-2013
</metadata>
<g transform="translate(0.000000,1311.000000) scale(0.100000,-0.100000)"
fill="#000000" stroke="none">
<path d="M6610 10906 l0 -743 148 -7 c638 -30 1244 -199 1777 -495 881 -491
1543 -1287 1860 -2235 89 -269 143 -512 182 -826 24 -202 24 -664 -1 -875 -95
-812 -410 -1536 -935 -2154 -187 -221 -510 -516 -728 -666 -40 -28 -71 -54
-69 -60 6 -15 805 -1198 821 -1214 11 -12 26 -5 97 44 535 373 1036 887 1405
1440 516 775 813 1615 905 2565 17 180 17 803 0 970 -52 497 -134 885 -276
1295 -687 1999 -2473 3436 -4561 3669 -175 20 -411 36 -532 36 l-93 0 0 -744z"/>
<path d="M3855 10912 c-439 -255 -810 -545 -1175 -918 -413 -423 -715 -848
-984 -1384 -367 -734 -553 -1486 -573 -2320 -28 -1152 300 -2262 950 -3218 50
-73 96 -131 102 -128 14 5 1164 842 1183 860 11 11 -3 38 -81 157 -390 592
-605 1228 -657 1944 -50 696 99 1420 426 2065 265 522 620 956 1095 1336 101
81 361 257 472 320 37 21 67 41 67 45 0 12 -708 1293 -717 1296 -4 2 -53 -23
-108 -55z"/>
<path d="M6428 8670 c-604 -44 -1171 -303 -1598 -730 -762 -762 -952 -1924
-474 -2891 370 -746 1086 -1261 1909 -1373 550 -74 1110 34 1583 305 953 547
1438 1626 1216 2704 -114 554 -438 1080 -887 1440 -286 229 -663 411 -1017
489 -229 50 -509 72 -732 56z m437 -1519 c553 -152 877 -722 720 -1266 -33
-114 -66 -184 -132 -284 -101 -152 -270 -297 -427 -366 -392 -173 -838 -90
-1140 211 -90 90 -146 171 -200 285 -66 140 -87 229 -93 395 -6 154 7 248 53
378 116 332 411 588 764 662 101 21 353 12 455 -15z"/>
</g>
</svg>
