<?xml version="1.0" encoding="UTF-8" standalone="no"?>
<svg
   xmlns:dc="http://purl.org/dc/elements/1.1/"
   xmlns:cc="http://creativecommons.org/ns#"
   xmlns:rdf="http://www.w3.org/1999/02/22-rdf-syntax-ns#"
   xmlns:svg="http://www.w3.org/2000/svg"
   xmlns="http://www.w3.org/2000/svg"
   xmlns:sodipodi="http://sodipodi.sourceforge.net/DTD/sodipodi-0.dtd"
   xmlns:inkscape="http://www.inkscape.org/namespaces/inkscape"
   version="1.1"
   id="svg2"
   xml:space="preserve"
   width="960"
   height="480"
   viewBox="0 0 960 480"
   sodipodi:docname="PRIDE LARGE.ai"><metadata
     id="metadata8"><rdf:RDF><cc:Work
         rdf:about=""><dc:format>image/svg+xml</dc:format><dc:type
           rdf:resource="http://purl.org/dc/dcmitype/StillImage" /></cc:Work></rdf:RDF></metadata><defs
     id="defs6"><clipPath
       clipPathUnits="userSpaceOnUse"
       id="clipPath18"><path
         d="m 189.843,300.407 0.002,-35.784 c 13.286,-0.003 25.852,-2.683 37.312,-7.527 v 0 c 17.182,-7.263 31.856,-19.443 42.196,-34.755 v 0 c 10.339,-15.322 16.355,-33.671 16.362,-53.588 v 0 c -0.005,-16.603 -4.187,-32.098 -11.561,-45.684 v 0 C 266.78,109.49 256.189,97.862 243.434,89.245 v 0 l 20.033,-29.652 c 17.503,11.828 31.992,27.732 42.132,46.394 v 0 c 10.139,18.65 15.906,40.101 15.901,62.766 v 0 c 0.003,18.127 -3.684,35.491 -10.353,51.251 v 0 c -10.007,23.649 -26.678,43.716 -47.68,57.908 v 0 c -20.982,14.187 -46.401,22.495 -73.593,22.495 v 0 c -0.011,0 -0.019,0 -0.031,0 M 77.085,236.746 C 65.095,216.914 58.183,193.567 58.189,168.754 v 0 c -0.008,-28.88 9.356,-55.745 25.179,-77.446 v 0 l 28.926,21.07 c -11.533,15.854 -18.312,35.239 -18.319,56.376 v 0 c 0.006,18.172 5.015,35.028 13.741,49.488 v 0 c 8.726,14.45 21.193,26.438 36.011,34.585 v 0 l -17.244,31.356 C 106.12,272.982 89.075,256.588 77.085,236.746 m 112.76,-7.719 c -33.288,0 -60.274,-26.986 -60.274,-60.274 v 0 c 0,-33.289 26.985,-60.274 60.274,-60.274 v 0 c 33.287,0 60.274,26.985 60.274,60.274 v 0 c 0,33.289 -26.984,60.274 -60.272,60.274 v 0 c 0,0 -0.002,0 -0.002,0 m -24.489,-60.274 c 0,13.525 10.964,24.49 24.489,24.49 v 0 c 13.525,0 24.489,-10.965 24.489,-24.49 v 0 c 0,-13.526 -10.964,-24.489 -24.489,-24.489 v 0 c -13.525,0 -24.489,10.963 -24.489,24.489"
         id="path16" /></clipPath><clipPath
       clipPathUnits="userSpaceOnUse"
       id="clipPath62"><path
         d="M 0,360 H 720 V 0 H 0 Z"
         id="path60" /></clipPath></defs><sodipodi:namedview
     pagecolor="#ffffff"
     bordercolor="#666666"
     borderopacity="1"
     objecttolerance="10"
     gridtolerance="10"
     guidetolerance="10"
     inkscape:pageopacity="0"
     inkscape:pageshadow="2"
     inkscape:window-width="640"
     inkscape:window-height="480"
     id="namedview4" /><g
     id="g10"
     inkscape:groupmode="layer"
     inkscape:label="PRIDE LARGE"
     transform="matrix(1.3333333,0,0,-1.3333333,0,480)"><g
       id="g12"><g
         id="g14"
         clip-path="url(#clipPath18)"><path
           d="M 8.57,302.017 H 392.198 V 58.413 H 8.57 Z"
           style="fill:#732983;fill-opacity:1;fill-rule:nonzero;stroke:none"
           id="path20" /><path
           d="M 8.57,302.017 H 392.198 V 99.014 H 8.57 Z"
           style="fill:#405fac;fill-opacity:1;fill-rule:nonzero;stroke:none"
           id="path22" /><path
           d="M 8.57,302.017 H 392.198 V 139.615 H 8.57 Z"
           style="fill:#108140;fill-opacity:1;fill-rule:nonzero;stroke:none"
           id="path24" /><path
           d="M 8.57,302.017 H 392.198 V 180.215 H 8.57 Z"
           style="fill:#fdec09;fill-opacity:1;fill-rule:nonzero;stroke:none"
           id="path26" /><path
           d="M 8.57,302.017 H 392.198 V 220.816 H 8.57 Z"
           style="fill:#f78c1e;fill-opacity:1;fill-rule:nonzero;stroke:none"
           id="path28" /><path
           d="M 8.57,302.017 H 392.198 V 261.416 H 8.57 Z"
           style="fill:#e31e25;fill-opacity:1;fill-rule:nonzero;stroke:none"
           id="path30" /><g
           id="g32"
           transform="translate(8.5063,240.6362)"><path
             d="M 0,0 60.805,-60.421 0,-120.843 Z"
             style="fill:#ffffff;fill-opacity:1;fill-rule:nonzero;stroke:none"
             id="path34" /></g><g
           id="g36"
           transform="translate(8.5063,240.6362)"><path
             d="M 0,0 V 30.69 L 90.856,-60.421 0,-151.533 v 30.69 l 60.805,60.422 z"
             style="fill:#f7aec7;fill-opacity:1;fill-rule:nonzero;stroke:none"
             id="path38" /></g><g
           id="g40"
           transform="translate(8.5063,271.3267)"><path
             d="M 0,0 V 30.69 L 122.313,-91.112 0,-212.914 v 30.691 l 90.856,91.111 z"
             style="fill:#7ad0e8;fill-opacity:1;fill-rule:nonzero;stroke:none"
             id="path42" /></g><g
           id="g44"
           transform="translate(8.5063,302.0166)"><path
             d="M 0,0 122.313,-121.802 0,-243.604 H 30.754 L 152.492,-121.802 30.754,0 Z"
             style="fill:#613b18;fill-opacity:1;fill-rule:nonzero;stroke:none"
             id="path46" /></g><g
           id="g48"
           transform="translate(39.2603,302.0166)"><path
             d="M 0,0 H 30.69 L 152.428,-121.802 30.69,-243.604 H 0 l 121.738,121.802 z"
             style="fill:#000000;fill-opacity:1;fill-rule:nonzero;stroke:none"
             id="path50" /></g></g></g><g
       id="g52"
       transform="translate(411.1357,259.7778)"><path
         d="M 0,0 H -17.68 V -46.787 H -34.573 V 0 H -52.337 V 14.728 H 0 Z"
         style="fill:#444344;fill-opacity:1;fill-rule:nonzero;stroke:none"
         id="path54" /></g><g
       id="g56"><g
         id="g58"
         clip-path="url(#clipPath62)"><g
           id="g64"
           transform="translate(420.6621,235.7769)"><path
             d="m 0,0 c 0,-3.062 0.752,-5.46 2.255,-7.192 1.503,-1.732 3.434,-2.599 5.804,-2.599 2.369,0 4.305,0.866 5.809,2.599 1.498,1.732 2.249,4.131 2.249,7.192 0,3.061 -0.751,5.46 -2.249,7.192 C 12.364,8.923 10.429,9.79 8.059,9.79 5.688,9.79 3.758,8.924 2.255,7.192 0.752,5.46 0,3.061 0,0 m 8.059,-23.652 c -4.102,0 -7.695,0.646 -10.787,1.946 -3.09,1.299 -5.688,3.036 -7.799,5.201 -2.111,2.165 -3.698,4.679 -4.763,7.535 -1.07,2.862 -1.605,5.849 -1.605,8.97 0,3.12 0.534,6.107 1.605,8.969 1.063,2.857 2.652,5.371 4.763,7.536 2.111,2.165 4.709,3.902 7.799,5.201 3.092,1.299 6.686,1.946 10.787,1.946 4.041,0 7.625,-0.647 10.746,-1.946 3.12,-1.299 5.729,-3.036 7.839,-5.201 2.11,-2.165 3.698,-4.679 4.769,-7.536 C 32.478,6.108 33.016,3.12 33.016,0 c 0,-3.121 -0.537,-6.107 -1.603,-8.97 -1.07,-2.856 -2.658,-5.37 -4.769,-7.535 -2.111,-2.165 -4.719,-3.902 -7.839,-5.201 -3.121,-1.3 -6.705,-1.946 -10.746,-1.946"
             style="fill:#444344;fill-opacity:1;fill-rule:nonzero;stroke:none"
             id="path66" /></g><g
           id="g68"
           transform="translate(487.8125,244.5269)"><path
             d="m 0,0 c -3.177,0 -6.062,-0.344 -8.666,-1.04 -2.599,-0.692 -4.534,-1.847 -5.804,-3.465 v -27.031 h -16.461 v 45.572 h 15.077 V 5.375 c 1.613,3.062 3.624,5.416 6.018,7.059 2.399,1.647 4.982,2.469 7.756,2.469 1.1,0 1.791,-0.03 2.079,-0.085 z"
             style="fill:#444344;fill-opacity:1;fill-rule:nonzero;stroke:none"
             id="path70" /></g><g
           id="g72"
           transform="translate(504.7051,235.7769)"><path
             d="m 0,0 c 0,-3.062 0.751,-5.46 2.254,-7.192 1.504,-1.732 3.434,-2.599 5.804,-2.599 2.369,0 4.306,0.866 5.809,2.599 1.498,1.732 2.25,4.131 2.25,7.192 0,3.061 -0.752,5.46 -2.25,7.192 C 12.364,8.923 10.428,9.79 8.058,9.79 5.687,9.79 3.758,8.924 2.254,7.192 0.751,5.46 0,3.061 0,0 m 8.058,-23.652 c -4.101,0 -7.694,0.646 -10.786,1.946 -3.091,1.299 -5.688,3.036 -7.799,5.201 -2.111,2.165 -3.698,4.679 -4.764,7.535 -1.07,2.862 -1.604,5.849 -1.604,8.97 0,3.12 0.533,6.107 1.604,8.969 1.064,2.857 2.653,5.371 4.764,7.536 2.111,2.165 4.708,3.902 7.799,5.201 3.092,1.299 6.686,1.946 10.786,1.946 4.042,0 7.626,-0.647 10.746,-1.946 3.121,-1.299 5.729,-3.036 7.84,-5.201 2.111,-2.165 3.698,-4.679 4.768,-7.536 C 32.477,6.108 33.016,3.12 33.016,0 c 0,-3.121 -0.538,-6.107 -1.604,-8.97 -1.069,-2.856 -2.657,-5.37 -4.768,-7.535 -2.111,-2.165 -4.719,-3.902 -7.84,-5.201 -3.12,-1.3 -6.704,-1.946 -10.746,-1.946"
             style="fill:#444344;fill-opacity:1;fill-rule:nonzero;stroke:none"
             id="path74" /></g><g
           id="g76"
           transform="translate(586.7607,212.9912)"><path
             d="m 0,0 h -16.46 v 25.647 c 0,2.25 -0.508,3.883 -1.518,4.894 -1.011,1.01 -2.181,1.518 -3.508,1.518 -1.385,0 -2.858,-0.607 -4.421,-1.821 -1.559,-1.215 -2.713,-2.772 -3.465,-4.679 V 0 h -16.46 v 45.572 h 14.812 v -6.754 c 1.619,2.479 3.888,4.375 6.804,5.674 2.917,1.299 6.366,1.946 10.355,1.946 3.12,0 5.59,-0.562 7.41,-1.688 1.816,-1.125 3.205,-2.528 4.156,-4.201 0.955,-1.677 1.572,-3.469 1.861,-5.375 0.289,-1.906 0.433,-3.639 0.433,-5.196 z"
             style="fill:#444344;fill-opacity:1;fill-rule:nonzero;stroke:none"
             id="path78" /></g><g
           id="g80"
           transform="translate(624.1074,215.5039)"><path
             d="m 0,0 c -2.311,-0.985 -4.778,-1.807 -7.406,-2.474 -2.628,-0.661 -5.217,-0.995 -7.755,-0.995 -1.853,0 -3.613,0.234 -5.286,0.697 -1.678,0.457 -3.136,1.209 -4.375,2.249 -1.244,1.041 -2.226,2.399 -2.947,4.072 -0.721,1.677 -1.085,3.758 -1.085,6.241 v 20.88 h -5.629 v 12.389 h 5.629 v 14.3 h 16.465 v -14.3 h 8.924 V 30.67 h -8.924 V 15.594 c 0,-1.503 0.314,-2.559 0.951,-3.161 0.637,-0.607 1.503,-0.91 2.604,-0.91 0.807,0 1.731,0.129 2.772,0.388 1.035,0.259 2.075,0.622 3.115,1.085 z"
             style="fill:#444344;fill-opacity:1;fill-rule:nonzero;stroke:none"
             id="path82" /></g><g
           id="g84"
           transform="translate(640.0439,235.7769)"><path
             d="m 0,0 c 0,-3.062 0.751,-5.46 2.255,-7.192 1.503,-1.732 3.434,-2.599 5.803,-2.599 2.37,0 4.306,0.866 5.809,2.599 1.499,1.732 2.25,4.131 2.25,7.192 0,3.061 -0.751,5.46 -2.25,7.192 C 12.364,8.923 10.429,9.79 8.058,9.79 5.689,9.79 3.758,8.924 2.255,7.192 0.751,5.46 0,3.061 0,0 m 8.058,-23.652 c -4.101,0 -7.694,0.646 -10.785,1.946 -3.091,1.299 -5.689,3.036 -7.8,5.201 -2.111,2.165 -3.698,4.679 -4.764,7.535 -1.069,2.862 -1.603,5.849 -1.603,8.97 0,3.12 0.533,6.107 1.603,8.969 1.065,2.857 2.653,5.371 4.764,7.536 2.111,2.165 4.709,3.902 7.8,5.201 3.091,1.299 6.685,1.946 10.785,1.946 4.042,0 7.626,-0.647 10.746,-1.946 3.121,-1.299 5.729,-3.036 7.84,-5.201 2.111,-2.165 3.698,-4.679 4.769,-7.536 C 32.478,6.108 33.016,3.12 33.016,0 c 0,-3.121 -0.538,-6.107 -1.603,-8.97 -1.07,-2.856 -2.658,-5.37 -4.769,-7.535 -2.111,-2.165 -4.719,-3.902 -7.84,-5.201 -3.119,-1.3 -6.704,-1.946 -10.746,-1.946"
             style="fill:#444344;fill-opacity:1;fill-rule:nonzero;stroke:none"
             id="path86" /></g><g
           id="g88"
           transform="translate(438.9238,136.8193)"><path
             d="m 0,0 c -4.345,0 -7.665,1.318 -9.943,3.957 -2.286,2.633 -3.426,6.48 -3.426,11.537 V 43.71 H 2.12 V 18.998 c 0,-1.901 0.424,-3.369 1.265,-4.399 0.846,-1.036 2.002,-1.553 3.469,-1.553 1.195,0 2.42,0.272 3.669,0.815 1.249,0.542 2.498,1.742 3.753,3.588 V 43.71 H 29.771 V 17.938 c 0,-1.468 0.213,-2.482 0.651,-3.056 0.433,-0.572 1.194,-0.91 2.279,-1.021 V 0.815 C 30.038,0.272 27.863,0 26.181,0 20.905,0 17.864,1.985 17.047,5.953 L 16.718,7.501 C 14.707,4.838 12.314,2.922 9.541,1.752 6.769,0.582 3.589,0 0,0"
             style="fill:#444344;fill-opacity:1;fill-rule:nonzero;stroke:none"
             id="path90" /></g><g
           id="g92"
           transform="translate(507.9199,167.3203)"><path
             d="m 0,0 c -2.991,0 -5.709,-0.328 -8.158,-0.98 -2.443,-0.652 -4.266,-1.743 -5.465,-3.26 v -25.445 h -15.494 v 42.896 h 14.19 V 5.053 c 1.522,2.882 3.414,5.097 5.669,6.65 2.255,1.547 4.688,2.324 7.297,2.324 1.035,0 1.689,-0.03 1.961,-0.085 z"
             style="fill:#444344;fill-opacity:1;fill-rule:nonzero;stroke:none"
             id="path94" /></g><g
           id="g96"
           transform="translate(513.2158,197.165)"><path
             d="m 0,0 h 15.494 v -42.487 c 0,-3.26 1.329,-4.893 3.997,-4.893 0.653,0 1.36,0.109 2.12,0.328 0.757,0.215 1.469,0.513 2.121,0.896 l 1.956,-11.418 c -1.852,-0.871 -3.928,-1.548 -6.242,-2.041 -2.31,-0.488 -4.494,-0.731 -6.56,-0.731 -4.137,0 -7.317,1.061 -9.542,3.181 -2.229,2.12 -3.345,5.191 -3.345,9.213 z"
             style="fill:#444344;fill-opacity:1;fill-rule:nonzero;stroke:none"
             id="path98" /></g><path
           d="m 543.304,180.531 h 15.495 v -42.896 h -15.495 z m 0,16.634 h 15.495 v -13.046 h -15.495 z"
           style="fill:#444344;fill-opacity:1;fill-rule:nonzero;stroke:none"
           id="path100" /><g
           id="g102"
           transform="translate(610.5879,137.6357)"><path
             d="m 0,0 h -15.495 v 24.136 c 0,2.119 -0.478,3.657 -1.428,4.608 -0.951,0.95 -2.056,1.429 -3.306,1.429 -1.304,0 -2.688,-0.572 -4.155,-1.713 -1.469,-1.145 -2.559,-2.611 -3.266,-4.403 V 0 h -15.494 v 42.895 h 13.946 v -6.361 c 1.523,2.335 3.658,4.116 6.4,5.341 2.748,1.225 5.993,1.837 9.746,1.837 2.937,0 5.261,-0.532 6.974,-1.593 1.712,-1.06 3.016,-2.379 3.912,-3.957 0.9,-1.573 1.483,-3.26 1.757,-5.052 0.269,-1.797 0.408,-3.424 0.408,-4.893 L -0.001,0 Z"
             style="fill:#444344;fill-opacity:1;fill-rule:nonzero;stroke:none"
             id="path104" /></g><g
           id="g106"
           transform="translate(640.9199,149.8652)"><path
             d="m 0,0 c 1.577,0 2.946,0.368 4.121,1.104 1.165,0.731 2.265,1.832 3.3,3.299 v 7.665 c -0.762,1.956 -1.892,3.511 -3.385,4.65 -1.493,1.138 -3.056,1.712 -4.688,1.712 -1.09,0 -2.105,-0.259 -3.056,-0.777 C -4.664,17.141 -5.49,16.46 -6.197,15.618 -6.904,14.771 -7.446,13.766 -7.83,12.602 -8.208,11.432 -8.397,10.192 -8.397,8.889 -8.397,6.226 -7.61,4.08 -6.033,2.448 -4.46,0.816 -2.444,0 0,0 m -5.545,-12.229 c -2.771,0 -5.315,0.558 -7.625,1.671 -2.309,1.111 -4.281,2.635 -5.913,4.565 -1.628,1.931 -2.893,4.201 -3.793,6.809 -0.895,2.608 -1.344,5.436 -1.344,8.481 0,3.206 0.487,6.173 1.468,8.89 0.981,2.717 2.35,5.058 4.116,7.014 1.768,1.955 3.878,3.493 6.322,4.608 2.448,1.11 5.136,1.673 8.072,1.673 3.102,0 5.818,-0.612 8.158,-1.837 2.334,-1.225 4.186,-3.006 5.545,-5.341 v 6.361 H 22.914 V -8.317 c 0,-3.371 -0.627,-6.416 -1.876,-9.134 -1.249,-2.718 -3.017,-5.028 -5.301,-6.928 -2.285,-1.907 -5.027,-3.386 -8.237,-4.445 -3.206,-1.062 -6.765,-1.593 -10.682,-1.593 -4.564,0 -8.536,0.707 -11.906,2.12 -3.369,1.414 -6.36,3.455 -8.969,6.116 l 8.152,8.482 c 1.578,-1.468 3.47,-2.702 5.67,-3.713 2.2,-1.006 4.554,-1.508 7.053,-1.508 1.413,0 2.758,0.192 4.036,0.571 1.279,0.378 2.404,0.991 3.385,1.837 0.98,0.842 1.752,1.941 2.323,3.301 0.574,1.357 0.857,2.99 0.857,4.893 v 2.772 C 6.17,-7.831 4.388,-9.514 2.078,-10.604 c -2.307,-1.084 -4.849,-1.625 -7.623,-1.625"
             style="fill:#444344;fill-opacity:1;fill-rule:nonzero;stroke:none"
             id="path108" /></g><g
           id="g110"
           transform="translate(385.165,98.4131)"><path
             d="M 0,0 -3.626,12.961 -7.427,0 Z M -8.748,25.979 H 1.501 L 15.663,-15.842 H 4.262 L 1.788,-7.655 H -9.097 l -2.418,-8.187 h -11.452 z"
             style="fill:#444344;fill-opacity:1;fill-rule:nonzero;stroke:none"
             id="path112" /></g><g
           id="g114"
           transform="translate(414.6631,82.0557)"><path
             d="m 0,0 c -2.356,0 -4.663,0.386 -6.92,1.155 -2.252,0.766 -4.168,1.887 -5.739,3.354 l 3.332,5.845 c 1.672,-1.126 3.288,-2.002 4.844,-2.613 1.552,-0.615 2.978,-0.926 4.278,-0.926 1.366,0 2.047,0.431 2.047,1.282 0,0.479 -0.266,0.89 -0.791,1.229 -0.53,0.341 -1.566,0.737 -3.103,1.183 -1.911,0.545 -3.508,1.079 -4.788,1.609 -1.281,0.53 -2.327,1.103 -3.127,1.717 -0.806,0.615 -1.376,1.302 -1.718,2.053 -0.339,0.75 -0.515,1.635 -0.515,2.661 0,1.365 0.275,2.632 0.821,3.793 0.545,1.16 1.306,2.167 2.281,3.021 0.975,0.856 2.137,1.511 3.482,1.972 1.352,0.466 2.827,0.695 4.433,0.695 1.982,0 3.868,-0.26 5.664,-0.77 1.791,-0.512 3.594,-1.558 5.405,-3.128 l -3.688,-5.84 c -1.677,1.092 -3.077,1.871 -4.203,2.332 -1.125,0.46 -2.187,0.69 -3.178,0.69 -0.579,0 -1.06,-0.11 -1.436,-0.33 -0.375,-0.225 -0.56,-0.576 -0.56,-1.05 0,-0.517 0.27,-0.932 0.82,-1.256 0.545,-0.326 1.621,-0.692 3.228,-1.103 1.945,-0.514 3.582,-1.051 4.918,-1.616 1.331,-0.564 2.396,-1.176 3.202,-1.846 0.801,-0.666 1.371,-1.416 1.717,-2.252 0.34,-0.836 0.51,-1.8 0.51,-2.896 0,-1.401 -0.255,-2.647 -0.766,-3.737 C 9.935,4.132 9.194,3.196 8.219,2.41 7.248,1.625 6.068,1.024 4.687,0.614 3.303,0.205 1.742,0 0,0"
             style="fill:#444344;fill-opacity:1;fill-rule:nonzero;stroke:none"
             id="path116" /></g><g
           id="g118"
           transform="translate(441.0469,82.0557)"><path
             d="m 0,0 c -2.355,0 -4.663,0.386 -6.92,1.155 -2.251,0.766 -4.168,1.887 -5.739,3.354 l 3.333,5.845 c 1.671,-1.126 3.287,-2.002 4.845,-2.613 1.55,-0.615 2.976,-0.926 4.276,-0.926 1.366,0 2.047,0.431 2.047,1.282 0,0.479 -0.266,0.89 -0.791,1.229 -0.53,0.341 -1.565,0.737 -3.102,1.183 -1.912,0.545 -3.508,1.079 -4.789,1.609 -1.28,0.53 -2.326,1.103 -3.127,1.717 -0.805,0.615 -1.376,1.302 -1.716,2.053 -0.34,0.75 -0.516,1.635 -0.516,2.661 0,1.365 0.275,2.632 0.82,3.793 0.546,1.16 1.306,2.167 2.281,3.021 0.977,0.856 2.137,1.511 3.483,1.972 1.351,0.466 2.826,0.695 4.433,0.695 1.981,0 3.869,-0.26 5.664,-0.77 1.792,-0.512 3.593,-1.558 5.404,-3.128 l -3.688,-5.84 c -1.677,1.092 -3.077,1.871 -4.203,2.332 -1.126,0.46 -2.186,0.69 -3.178,0.69 -0.58,0 -1.061,-0.11 -1.436,-0.33 -0.376,-0.225 -0.561,-0.576 -0.561,-1.05 0,-0.517 0.271,-0.932 0.821,-1.256 0.546,-0.326 1.62,-0.692 3.227,-1.103 1.946,-0.514 3.582,-1.051 4.919,-1.616 1.33,-0.564 2.397,-1.176 3.202,-1.846 0.8,-0.666 1.371,-1.416 1.716,-2.252 0.341,-0.836 0.511,-1.8 0.511,-2.896 C 11.216,7.564 10.96,6.318 10.45,5.228 9.935,4.132 9.194,3.196 8.219,2.41 7.248,1.625 6.067,1.024 4.687,0.614 3.303,0.205 1.741,0 0,0"
             style="fill:#444344;fill-opacity:1;fill-rule:nonzero;stroke:none"
             id="path120" /></g><g
           id="g122"
           transform="translate(464.8203,96.0459)"><path
             d="m 0,0 c 0,-1.812 0.444,-3.228 1.336,-4.254 0.886,-1.025 2.031,-1.536 3.433,-1.536 1.402,0 2.542,0.511 3.433,1.536 C 9.088,-3.228 9.533,-1.812 9.533,0 9.533,1.812 9.088,3.228 8.202,4.253 7.311,5.278 6.171,5.789 4.769,5.789 3.367,5.789 2.222,5.278 1.336,4.253 0.444,3.227 0,1.811 0,0 m 4.768,-13.99 c -2.427,0 -4.554,0.386 -6.38,1.155 -1.826,0.766 -3.367,1.792 -4.614,3.072 -1.246,1.282 -2.186,2.768 -2.815,4.458 -0.631,1.691 -0.946,3.458 -0.946,5.305 0,1.846 0.315,3.612 0.946,5.304 0.63,1.691 1.569,3.177 2.815,4.458 1.247,1.281 2.788,2.302 4.614,3.072 1.826,0.77 3.953,1.15 6.38,1.15 2.386,0 4.507,-0.38 6.35,-1.15 1.847,-0.771 3.393,-1.791 4.639,-3.072 1.245,-1.281 2.186,-2.767 2.815,-4.458 0.637,-1.691 0.951,-3.458 0.951,-5.304 0,-1.847 -0.314,-3.613 -0.951,-5.305 -0.63,-1.69 -1.57,-3.176 -2.815,-4.458 -1.246,-1.28 -2.792,-2.307 -4.639,-3.072 -1.843,-0.77 -3.964,-1.155 -6.35,-1.155"
             style="fill:#444344;fill-opacity:1;fill-rule:nonzero;stroke:none"
             id="path124" /></g><g
           id="g126"
           transform="translate(487.0107,96.0459)"><path
             d="m 0,0 c 0,1.846 0.32,3.612 0.972,5.304 0.65,1.692 1.595,3.177 2.841,4.458 1.251,1.281 2.797,2.302 4.639,3.072 1.846,0.771 3.963,1.15 6.355,1.15 3.276,0 6.019,-0.68 8.22,-2.046 2.207,-1.366 3.853,-3.127 4.949,-5.279 L 18.494,3.792 C 17.573,5.123 16.327,5.789 14.757,5.789 13.421,5.789 12.295,5.283 11.374,4.277 10.453,3.267 9.988,1.845 9.988,0 c 0,-1.847 0.465,-3.271 1.386,-4.278 0.921,-1.011 2.047,-1.512 3.383,-1.512 1.57,0 2.816,0.666 3.737,1.997 l 9.482,-2.867 c -1.097,-2.151 -2.742,-3.913 -4.949,-5.278 -2.201,-1.366 -4.943,-2.052 -8.22,-2.052 -2.393,0 -4.51,0.386 -6.355,1.155 -1.842,0.766 -3.388,1.792 -4.639,3.072 C 2.567,-8.481 1.622,-6.995 0.972,-5.305 0.32,-3.613 0,-1.847 0,0"
             style="fill:#444344;fill-opacity:1;fill-rule:nonzero;stroke:none"
             id="path128" /></g><path
           d="m 518.774,109.52 h 9.731 V 82.571 h -9.731 z m 0,10.452 h 9.731 v -8.194 h -9.731 z"
           style="fill:#444344;fill-opacity:1;fill-rule:nonzero;stroke:none"
           id="path130" /><g
           id="g132"
           transform="translate(545.0029,89.0254)"><path
             d="m 0,0 c 0.58,0 1.181,0.095 1.796,0.279 0.615,0.191 1.161,0.437 1.636,0.745 0.381,0.272 0.686,0.572 0.926,0.897 0.235,0.325 0.355,0.654 0.355,1 v 1.997 c -0.58,0.205 -1.211,0.375 -1.892,0.51 -0.686,0.14 -1.3,0.205 -1.846,0.205 -1.196,0 -2.187,-0.29 -2.973,-0.87 -0.785,-0.581 -1.176,-1.317 -1.176,-2.202 0,-0.75 0.295,-1.366 0.896,-1.846 C -1.681,0.24 -0.921,0 0,0 m -2.918,-6.97 c -1.336,0 -2.581,0.226 -3.742,0.665 -1.161,0.446 -2.162,1.052 -2.997,1.822 -0.836,0.771 -1.496,1.681 -1.972,2.742 -0.479,1.055 -0.716,2.201 -0.716,3.432 0,1.367 0.285,2.612 0.871,3.738 0.58,1.131 1.381,2.101 2.406,2.923 1.026,0.82 2.247,1.45 3.663,1.896 1.416,0.445 2.982,0.666 4.688,0.666 2.187,0 3.998,-0.342 5.429,-1.025 v 0.82 c 0,1.266 -0.365,2.2 -1.101,2.815 -0.735,0.617 -1.922,0.926 -3.558,0.926 -1.541,0 -2.957,-0.25 -4.253,-0.744 -1.301,-0.495 -2.667,-1.222 -4.099,-2.178 l -2.821,6.045 c 3.553,2.291 7.601,3.433 12.144,3.433 4.303,0 7.615,-0.955 9.942,-2.866 2.321,-1.912 3.482,-4.785 3.482,-8.607 V 4.305 c 0,-0.92 0.135,-1.561 0.41,-1.921 0.275,-0.361 0.751,-0.571 1.437,-0.642 v -8.195 c -0.786,-0.17 -1.531,-0.3 -2.232,-0.385 -0.7,-0.086 -1.32,-0.131 -1.866,-0.131 -1.746,0 -3.067,0.321 -3.973,0.95 -0.905,0.631 -1.495,1.563 -1.767,2.792 L 6.252,-2.255 C 5.057,-3.791 3.67,-4.962 2.1,-5.763 0.531,-6.564 -1.141,-6.97 -2.918,-6.97"
             style="fill:#444344;fill-opacity:1;fill-rule:nonzero;stroke:none"
             id="path134" /></g><g
           id="g136"
           transform="translate(584.1514,84.0566)"><path
             d="m 0,0 c -1.365,-0.58 -2.826,-1.069 -4.378,-1.461 -1.557,-0.395 -3.088,-0.591 -4.589,-0.591 -1.091,0 -2.137,0.136 -3.128,0.411 -0.989,0.275 -1.85,0.715 -2.586,1.331 -0.735,0.616 -1.315,1.416 -1.742,2.412 -0.425,0.985 -0.639,2.216 -0.639,3.687 V 18.14 h -3.329 v 7.325 h 3.329 v 8.455 h 9.736 v -8.455 h 5.273 V 18.14 H -7.326 V 9.223 c 0,-0.892 0.185,-1.512 0.56,-1.871 0.376,-0.361 0.892,-0.536 1.541,-0.536 0.477,0 1.022,0.076 1.638,0.229 0.614,0.15 1.23,0.365 1.846,0.642 z"
             style="fill:#444344;fill-opacity:1;fill-rule:nonzero;stroke:none"
             id="path138" /></g><path
           d="m 587.639,109.52 h 9.731 V 82.571 h -9.731 z m 0,10.452 h 9.731 v -8.194 h -9.731 z"
           style="fill:#444344;fill-opacity:1;fill-rule:nonzero;stroke:none"
           id="path140" /><g
           id="g142"
           transform="translate(611.5107,96.0459)"><path
             d="M 0,0 C 0,-1.812 0.445,-3.228 1.336,-4.254 2.223,-5.279 3.367,-5.79 4.77,-5.79 c 1.399,0 2.542,0.511 3.432,1.536 C 9.088,-3.228 9.533,-1.812 9.533,0 9.533,1.812 9.088,3.228 8.202,4.253 7.312,5.278 6.17,5.789 4.77,5.789 3.368,5.789 2.223,5.278 1.336,4.253 0.445,3.227 0,1.811 0,0 m 4.77,-13.99 c -2.427,0 -4.555,0.386 -6.38,1.155 -1.827,0.766 -3.368,1.792 -4.614,3.072 -1.246,1.282 -2.187,2.768 -2.817,4.458 -0.63,1.691 -0.944,3.458 -0.944,5.305 0,1.846 0.314,3.612 0.944,5.304 0.631,1.691 1.571,3.177 2.817,4.458 1.246,1.281 2.787,2.302 4.614,3.072 1.825,0.77 3.953,1.15 6.38,1.15 2.386,0 4.507,-0.38 6.349,-1.15 1.846,-0.771 3.394,-1.791 4.639,-3.072 C 17.003,8.481 17.945,6.995 18.574,5.304 19.21,3.613 19.525,1.846 19.525,0 c 0,-1.847 -0.315,-3.613 -0.951,-5.305 -0.63,-1.69 -1.571,-3.176 -2.816,-4.458 -1.245,-1.28 -2.793,-2.307 -4.639,-3.072 -1.843,-0.77 -3.964,-1.155 -6.349,-1.155"
             style="fill:#444344;fill-opacity:1;fill-rule:nonzero;stroke:none"
             id="path144" /></g><g
           id="g146"
           transform="translate(662.2832,82.5703)"><path
             d="m 0,0 h -9.731 v 15.166 c 0,1.331 -0.301,2.297 -0.896,2.893 -0.601,0.601 -1.29,0.9 -2.076,0.9 -0.82,0 -1.692,-0.36 -2.611,-1.075 -0.926,-0.721 -1.606,-1.642 -2.052,-2.769 V 0 h -9.733 v 26.949 h 8.763 v -3.997 c 0.955,1.471 2.297,2.587 4.018,3.357 1.727,0.771 3.768,1.15 6.125,1.15 1.845,0 3.307,-0.33 4.382,-0.995 1.077,-0.666 1.893,-1.496 2.457,-2.487 0.566,-0.991 0.932,-2.051 1.102,-3.177 0.17,-1.126 0.255,-2.152 0.255,-3.072 L 0.003,0 Z"
             style="fill:#444344;fill-opacity:1;fill-rule:nonzero;stroke:none"
             id="path148" /></g><g
           id="g150"
           transform="translate(396.71,198.481)"><path
             d="m 0,0 c 3.209,-0.441 6.374,-1.06 9.378,-2.331 1.474,-0.623 2.924,-1.296 4.274,-2.159 1.127,-0.72 1.363,-1.5 0.688,-2.63 -2.07,-3.464 -4.171,-6.909 -6.299,-10.338 -0.688,-1.108 -1.475,-1.211 -2.781,-0.486 -3.811,2.116 -7.837,2.653 -12.044,1.555 -9.12,-2.379 -14.167,-12.286 -10.783,-21.096 0.857,-2.231 0.718,-2.613 -1.418,-3.603 -3.153,-1.461 -6.313,-2.909 -9.477,-4.346 -2.077,-0.944 -2.742,-0.683 -3.583,1.398 -1.341,3.318 -2.249,6.738 -2.361,10.339 -0.008,0.274 -0.101,0.545 -0.154,0.817 v 2.16 c 0.293,0.77 0.108,1.585 0.222,2.373 1.79,12.343 8.299,21.103 19.798,26.072 2.883,1.246 5.943,1.796 9.019,2.275 z"
             style="fill:#444344;fill-opacity:1;fill-rule:nonzero;stroke:none"
             id="path152" /></g><g
           id="g154"
           transform="translate(391.4297,134.8809)"><path
             d="m 0,0 c -3.209,0.447 -6.375,1.062 -9.386,2.321 -2.371,0.992 -4.613,2.211 -6.693,3.72 -1.128,0.818 -1.3,1.639 -0.481,2.761 2.359,3.228 4.745,6.437 7.15,9.629 0.809,1.072 1.632,1.118 2.922,0.261 2.767,-1.84 5.78,-2.866 9.133,-2.812 5.804,0.095 10.269,2.625 13.469,7.428 1.12,1.679 1.702,1.853 3.423,0.882 3.029,-1.71 6.06,-3.415 9.091,-5.118 0.663,-0.373 1.321,-0.749 1.851,-1.309 v -1.44 C 30.267,15.986 30.051,15.651 29.843,15.313 25.986,9.046 20.607,4.62 13.749,1.977 11.018,0.922 8.154,0.44 5.279,0.003 3.521,0 1.761,0 0,0"
             style="fill:#444344;fill-opacity:1;fill-rule:nonzero;stroke:none"
             id="path156" /></g></g></g></g></svg>
